<?xml version="1.0" standalone="no"?>
<!DOCTYPE svg PUBLIC "-//W3C//DTD SVG 1.1//EN"
  "http://www.w3.org/Graphics/SVG/1.1/DTD/svg11.dtd">
<svg width="102mm" height="88.88027381896973mm" viewBox="-51 -26.880273818969727 102 88.88027381896973" xmlns="http://www.w3.org/2000/svg" version="1.1">
	<title>svgOutput</title>
	<desc>made with tinkercad</desc>
<path d="M 33.672847747802734 -25.880273818969727 L 35.22945022583008 -24.468841552734375 L 35.35499954223633 -24.354999542236328 L 36.00299835205078 -23.640352249145508 L 38.6510009765625 -20.719999313354492 L 41.573001861572266 -16.77899932861328 L 43.240013122558594 -13.998000144958496 L 44.09600067138672 -12.569999694824219 L 46.194000244140625 -8.133999824523926 L 47.84700012207031 -3.5139999389648438 L 48.7271614074707 4.440892164675075e-17 L 49.03900146484375 1.2450000047683716 L 49.75899887084961 6.098999977111816 L 50 11 L 49.75899887084961 15.901000022888184 L 49.03900146484375 20.7549991607666 L 47.84700012207031 25.513999938964844 L 46.194000244140625 30.134000778198242 L 44.9482536315918 32.768001556396484 L 44.09600067138672 34.56999969482422 L 41.573001861572266 38.77899932861328 L 38.6510009765625 42.720001220703125 L 35.35499954223633 46.35499954223633 L 31.719999313354492 49.6510009765625 L 27.77899932861328 52.573001861572266 L 23.56999969482422 55.09600067138672 L 19.134000778198242 57.194000244140625 L 14.513999938964844 58.84700012207031 L 9.755000114440918 60.03900146484375 L 4.901000022888184 60.75899887084961 L 0 61 L -4.901000022888184 60.75899887084961 L -9.755000114440918 60.03900146484375 L -14.513999938964844 58.84700012207031 L -19.134000778198242 57.194000244140625 L -23.56999969482422 55.09600067138672 L -27.77899932861328 52.573001861572266 L -31.719999313354492 49.6510009765625 L -35.35499954223633 46.35499954223633 L -38.6510009765625 42.720001220703125 L -41.573001861572266 38.77899932861328 L -44.09600067138672 34.56999969482422 L -44.9482536315918 32.768001556396484 L -46.194000244140625 30.134000778198242 L -47.84700012207031 25.513999938964844 L -49.03900146484375 20.7549991607666 L -49.75899887084961 15.901000022888184 L -50 11 L -49.75899887084961 6.098999977111816 L -49.03900146484375 1.2450000047683716 L -48.7271614074707 4.440892164675075e-17 L -47.84700012207031 -3.5139999389648438 L -46.194000244140625 -8.133999824523926 L -44.09600067138672 -12.569999694824219 L -41.573001861572266 -16.77899932861328 L -38.6510009765625 -20.719999313354492 L -36.00299835205078 -23.640352249145508 L -35.35499954223633 -24.354999542236328 L -33.976348876953125 -25.60507583618164 L -33.672847747802734 -25.880273818969727 L -29.12700080871582 -21.417999267578125 L -21.16200065612793 -17.43600082397461 L -11.125 -14.878999710083008 L 0 -13.998000144958496 L 11.125 -14.878999710083008 L 21.16200065612793 -17.43600082397461 L 29.12700080871582 -21.417999267578125 L 33.672847747802734 -25.880273818969727 z" fill="none" stroke="rgb(0,0,255)" stroke-width="0.01mm" />
</svg>