<?xml version="1.0" standalone="no"?>
<!DOCTYPE svg PUBLIC "-//W3C//DTD SVG 1.1//EN"
  "http://www.w3.org/Graphics/SVG/1.1/DTD/svg11.dtd">
<svg width="102mm" height="102mm" viewBox="-46 -41 102 102" xmlns="http://www.w3.org/2000/svg" version="1.1">
	<title>svgOutput</title>
	<desc>made with tinkercad</desc>
<path d="M -9.513999938964844 57.84700012207031 L -14.133999824523926 56.194000244140625 L -18.56999969482422 54.09600067138672 L -22.77899932861328 51.573001861572266 L -26.719999313354492 48.6510009765625 L -30.354999542236328 45.35499954223633 L -33.6510009765625 41.720001220703125 L -36.573001861572266 37.77899932861328 L -39.09600067138672 33.56999969482422 L -39.475303649902344 32.768001556396484 L -41.194000244140625 29.134000778198242 L -42.84700012207031 24.513999938964844 L -44.03900146484375 19.7549991607666 L -44.75899887084961 14.901000022888184 L -45 10 L -44.75899887084961 5.098999977111816 L -44.03900146484375 0.24500000476837164 L -43.97763442993164 4.440892164675075e-17 L -42.84700012207031 -4.513999938964844 L -41.194000244140625 -9.133999824523926 L -39.09600067138672 -13.569999694824219 L -36.573001861572266 -17.77899932861328 L -33.6510009765625 -21.719999313354492 L -30.354999542236328 -25.354999542236328 L -26.719999313354492 -28.650999069213867 L -22.77899932861328 -31.572999954223633 L -18.56999969482422 -34.09600067138672 L -14.133999824523926 -36.194000244140625 L -9.513999938964844 -37.84700012207031 L -4.755000114440918 -39.03900146484375 L 3.104408616565364e-14 -39.74431610107422 L 0.0989999994635582 -39.75899887084961 L 5 -40 L 9.901000022888184 -39.75899887084961 L 14.755000114440918 -39.03900146484375 L 19.513999938964844 -37.84700012207031 L 24.134000778198242 -36.194000244140625 L 28.56999969482422 -34.09600067138672 L 32.77899932861328 -31.572999954223633 L 36.720001220703125 -28.650999069213867 L 40.35499954223633 -25.354999542236328 L 43.6510009765625 -21.719999313354492 L 46.573001861572266 -17.77899932861328 L 49.09600067138672 -13.569999694824219 L 51.194000244140625 -9.133999824523926 L 52.84700012207031 -4.513999938964844 L 53.97763442993164 4.440892164675075e-17 L 54.03900146484375 0.24500000476837164 L 54.75899887084961 5.098999977111816 L 55 10 L 54.75899887084961 14.901000022888184 L 54.03900146484375 19.7549991607666 L 52.84700012207031 24.513999938964844 L 51.194000244140625 29.134000778198242 L 49.475303649902344 32.768001556396484 L 49.09600067138672 33.56999969482422 L 46.573001861572266 37.77899932861328 L 43.6510009765625 41.720001220703125 L 40.35499954223633 45.35499954223633 L 36.720001220703125 48.6510009765625 L 32.77899932861328 51.573001861572266 L 28.56999969482422 54.09600067138672 L 24.134000778198242 56.194000244140625 L 19.513999938964844 57.84700012207031 L 14.755000114440918 59.03900146484375 L 9.901000022888184 59.75899887084961 L 5 60 L 0.0989999994635582 59.75899887084961 L 0 59.74431610107422 L -4.755000114440918 59.03900146484375 L -9.513999938964844 57.84700012207031 z" fill="none" stroke="rgb(0,0,255)" stroke-width="0.01mm" />
</svg>