solid stl_item0
  facet normal -0.51414 0.85771 0
    outer loop
      vertex -18.57 34.096 0
      vertex -22.779 31.573 0
      vertex -22.779 31.573 10
    endloop
  endfacet
  facet normal -0.51414 0.85771 0
    outer loop
      vertex -18.57 34.096 0
      vertex -22.779 31.573 10
      vertex -18.57 34.096 10
    endloop
  endfacet
  facet normal 0 0 -1
    outer loop
      vertex 9.901 39.759 0
      vertex -41.194 -29.134 0
      vertex 5 40 0
    endloop
  endfacet
  facet normal 0 0 -1
    outer loop
      vertex 14.755 39.039 0
      vertex -41.194 -29.134 0
      vertex 9.901 39.759 0
    endloop
  endfacet
  facet normal 0 0 -1
    outer loop
      vertex 19.514 37.847 0
      vertex -41.194 -29.134 0
      vertex 14.755 39.039 0
    endloop
  endfacet
  facet normal 0 0 -1
    outer loop
      vertex 24.134 36.194 0
      vertex -41.194 -29.134 0
      vertex 19.514 37.847 0
    endloop
  endfacet
  facet normal 0 0 -1
    outer loop
      vertex 28.57 34.096 0
      vertex -41.194 -29.134 0
      vertex 24.134 36.194 0
    endloop
  endfacet
  facet normal 0 0 -1
    outer loop
      vertex 32.779 31.573 0
      vertex -41.194 -29.134 0
      vertex 28.57 34.096 0
    endloop
  endfacet
  facet normal 0 0 -1
    outer loop
      vertex 36.72 28.651 0
      vertex -41.194 -29.134 0
      vertex 32.779 31.573 0
    endloop
  endfacet
  facet normal 0 0 -1
    outer loop
      vertex 40.355 25.355 0
      vertex -41.194 -29.134 0
      vertex 36.72 28.651 0
    endloop
  endfacet
  facet normal 0 0 -1
    outer loop
      vertex 43.651 21.72 0
      vertex -41.194 -29.134 0
      vertex 40.355 25.355 0
    endloop
  endfacet
  facet normal 0 0 -1
    outer loop
      vertex 46.573 17.779 0
      vertex -41.194 -29.134 0
      vertex 43.651 21.72 0
    endloop
  endfacet
  facet normal 0 0 -1
    outer loop
      vertex 49.096 13.57 0
      vertex -41.194 -29.134 0
      vertex 46.573 17.779 0
    endloop
  endfacet
  facet normal 0 0 -1
    outer loop
      vertex 51.194 9.134 0
      vertex -41.194 -29.134 0
      vertex 49.096 13.57 0
    endloop
  endfacet
  facet normal 0 0 -1
    outer loop
      vertex 52.847 4.514 0
      vertex -41.194 -29.134 0
      vertex 51.194 9.134 0
    endloop
  endfacet
  facet normal 0 0 -1
    outer loop
      vertex 54.039 -0.245 0
      vertex -41.194 -29.134 0
      vertex 52.847 4.514 0
    endloop
  endfacet
  facet normal -0.59559 0.80329 0
    outer loop
      vertex -22.779 31.573 0
      vertex -26.72 28.651 0
      vertex -26.72 28.651 10
    endloop
  endfacet
  facet normal -0.59559 0.80329 0
    outer loop
      vertex -22.779 31.573 0
      vertex -26.72 28.651 10
      vertex -22.779 31.573 10
    endloop
  endfacet
  facet normal -0.67172 0.74081 0
    outer loop
      vertex -26.72 28.651 0
      vertex -30.355 25.355 0
      vertex -30.355 25.355 10
    endloop
  endfacet
  facet normal -0.67172 0.74081 0
    outer loop
      vertex -26.72 28.651 0
      vertex -30.355 25.355 10
      vertex -26.72 28.651 10
    endloop
  endfacet
  facet normal 0 0 1
    outer loop
      vertex -41.194 -29.134 10
      vertex 0.099 39.759 10
      vertex -42.847 -24.514 10
    endloop
  endfacet
  facet normal 0 0 1
    outer loop
      vertex -42.847 -24.514 10
      vertex 0.099 39.759 10
      vertex -44.039 -19.755 10
    endloop
  endfacet
  facet normal 0 0 1
    outer loop
      vertex -44.039 -19.755 10
      vertex 0.099 39.759 10
      vertex -44.759 -14.901 10
    endloop
  endfacet
  facet normal 0 0 1
    outer loop
      vertex -44.759 -5.099 10
      vertex -45 -10 10
      vertex -4.755 39.039 10
    endloop
  endfacet
  facet normal 0 0 1
    outer loop
      vertex -45 -10 10
      vertex -44.759 -14.901 10
      vertex -4.755 39.039 10
    endloop
  endfacet
  facet normal 0 0 -1
    outer loop
      vertex -39.096 13.57 0
      vertex -36.573 17.779 0
      vertex -41.194 9.134 0
    endloop
  endfacet
  facet normal 0 0 -1
    outer loop
      vertex -42.847 4.514 0
      vertex -41.194 9.134 0
      vertex -36.573 17.779 0
    endloop
  endfacet
  facet normal 0 0 -1
    outer loop
      vertex -42.847 4.514 0
      vertex -36.573 17.779 0
      vertex -33.651 21.72 0
    endloop
  endfacet
  facet normal 0 0 -1
    outer loop
      vertex -42.847 4.514 0
      vertex -33.651 21.72 0
      vertex -30.355 25.355 0
    endloop
  endfacet
  facet normal 0 0 -1
    outer loop
      vertex -42.847 4.514 0
      vertex -30.355 25.355 0
      vertex -26.72 28.651 0
    endloop
  endfacet
  facet normal 0 0 -1
    outer loop
      vertex -42.847 4.514 0
      vertex -26.72 28.651 0
      vertex -22.779 31.573 0
    endloop
  endfacet
  facet normal 0 0 -1
    outer loop
      vertex -42.847 4.514 0
      vertex -22.779 31.573 0
      vertex -18.57 34.096 0
    endloop
  endfacet
  facet normal 0 0 -1
    outer loop
      vertex -42.847 4.514 0
      vertex -18.57 34.096 0
      vertex -14.134 36.194 0
    endloop
  endfacet
  facet normal 0 0 -1
    outer loop
      vertex -42.847 4.514 0
      vertex -14.134 36.194 0
      vertex -9.514 37.847 0
    endloop
  endfacet
  facet normal 0 0 -1
    outer loop
      vertex -42.847 4.514 0
      vertex -9.514 37.847 0
      vertex -4.755 39.039 0
    endloop
  endfacet
  facet normal 0 0 -1
    outer loop
      vertex -42.847 4.514 0
      vertex -4.755 39.039 0
      vertex 0.099 39.759 0
    endloop
  endfacet
  facet normal 0 0 -1
    outer loop
      vertex 54.759 -14.901 0
      vertex -41.194 -29.134 0
      vertex 55 -10 0
    endloop
  endfacet
  facet normal 0 0 -1
    outer loop
      vertex 55 -10 0
      vertex -41.194 -29.134 0
      vertex 54.759 -5.099 0
    endloop
  endfacet
  facet normal 0 0 -1
    outer loop
      vertex 54.039 -19.755 0
      vertex -36.573 -37.779 0
      vertex 54.759 -14.901 0
    endloop
  endfacet
  facet normal 0 0 -1
    outer loop
      vertex 52.847 -24.514 0
      vertex -36.573 -37.779 0
      vertex 54.039 -19.755 0
    endloop
  endfacet
  facet normal 0 0 -1
    outer loop
      vertex 51.194 -29.134 0
      vertex -36.573 -37.779 0
      vertex 52.847 -24.514 0
    endloop
  endfacet
  facet normal 0 0 -1
    outer loop
      vertex 49.096 -33.57 0
      vertex -36.573 -37.779 0
      vertex 51.194 -29.134 0
    endloop
  endfacet
  facet normal 0 0 -1
    outer loop
      vertex 54.759 -5.099 0
      vertex -41.194 -29.134 0
      vertex 54.039 -0.245 0
    endloop
  endfacet
  facet normal 0 0 1
    outer loop
      vertex -4.755 -59.039 10
      vertex -41.194 -29.134 10
      vertex -39.096 -33.57 10
    endloop
  endfacet
  facet normal 0 0 1
    outer loop
      vertex -4.755 -59.039 10
      vertex -39.096 -33.57 10
      vertex -36.573 -37.779 10
    endloop
  endfacet
  facet normal 0 0 1
    outer loop
      vertex -4.755 -59.039 10
      vertex -36.573 -37.779 10
      vertex -33.651 -41.72 10
    endloop
  endfacet
  facet normal 0 0 1
    outer loop
      vertex -4.755 -59.039 10
      vertex -33.651 -41.72 10
      vertex -30.355 -45.355 10
    endloop
  endfacet
  facet normal 0 0 1
    outer loop
      vertex -4.755 -59.039 10
      vertex -30.355 -45.355 10
      vertex -26.72 -48.651 10
    endloop
  endfacet
  facet normal 0 0 1
    outer loop
      vertex -4.755 -59.039 10
      vertex -26.72 -48.651 10
      vertex -22.779 -51.573 10
    endloop
  endfacet
  facet normal 0 0 1
    outer loop
      vertex -4.755 -59.039 10
      vertex -22.779 -51.573 10
      vertex -18.57 -54.096 10
    endloop
  endfacet
  facet normal 0 0 1
    outer loop
      vertex -4.755 -59.039 10
      vertex -18.57 -54.096 10
      vertex -14.134 -56.194 10
    endloop
  endfacet
  facet normal 0 0 1
    outer loop
      vertex -4.755 -59.039 10
      vertex -14.134 -56.194 10
      vertex -9.514 -57.847 10
    endloop
  endfacet
  facet normal 0.97003 0.24297 0
    outer loop
      vertex 52.847 4.514 10
      vertex 54.039 -0.245 10
      vertex 52.847 4.514 0
    endloop
  endfacet
  facet normal 0.97003 0.24297 0
    outer loop
      vertex 54.039 -0.245 0
      vertex 52.847 4.514 0
      vertex 54.039 -0.245 10
    endloop
  endfacet
  facet normal 0.94155 0.33688 0
    outer loop
      vertex 52.847 4.514 0
      vertex 51.194 9.134 0
      vertex 51.194 9.134 10
    endloop
  endfacet
  facet normal 0.94155 0.33688 0
    outer loop
      vertex 52.847 4.514 0
      vertex 51.194 9.134 10
      vertex 52.847 4.514 10
    endloop
  endfacet
  facet normal 0 0 -1
    outer loop
      vertex -4.755 -59.039 0
      vertex -9.514 -57.847 0
      vertex 46.573 -37.779 0
    endloop
  endfacet
  facet normal 0 0 -1
    outer loop
      vertex 0.099 -59.759 0
      vertex -4.755 -59.039 0
      vertex 46.573 -37.779 0
    endloop
  endfacet
  facet normal 0 0 -1
    outer loop
      vertex 5 -60 0
      vertex 0.099 -59.759 0
      vertex 46.573 -37.779 0
    endloop
  endfacet
  facet normal 0 0 -1
    outer loop
      vertex 5 -60 0
      vertex 46.573 -37.779 0
      vertex 43.651 -41.72 0
    endloop
  endfacet
  facet normal 0 0 -1
    outer loop
      vertex 5 -60 0
      vertex 43.651 -41.72 0
      vertex 40.355 -45.355 0
    endloop
  endfacet
  facet normal 0 0 -1
    outer loop
      vertex 5 -60 0
      vertex 40.355 -45.355 0
      vertex 36.72 -48.651 0
    endloop
  endfacet
  facet normal 0 0 -1
    outer loop
      vertex 5 -60 0
      vertex 36.72 -48.651 0
      vertex 32.779 -51.573 0
    endloop
  endfacet
  facet normal 0 0 -1
    outer loop
      vertex 28.57 -54.096 0
      vertex 9.901 -59.759 0
      vertex 32.779 -51.573 0
    endloop
  endfacet
  facet normal 0 0 -1
    outer loop
      vertex 24.134 -56.194 0
      vertex 9.901 -59.759 0
      vertex 28.57 -54.096 0
    endloop
  endfacet
  facet normal 0 0 -1
    outer loop
      vertex 19.514 -57.847 0
      vertex 14.755 -59.039 0
      vertex 24.134 -56.194 0
    endloop
  endfacet
  facet normal 0 0 -1
    outer loop
      vertex 9.901 -59.759 0
      vertex 24.134 -56.194 0
      vertex 14.755 -59.039 0
    endloop
  endfacet
  facet normal 0 0 -1
    outer loop
      vertex 5 -60 0
      vertex 32.779 -51.573 0
      vertex 9.901 -59.759 0
    endloop
  endfacet
  facet normal 0.90399 0.42754 0
    outer loop
      vertex 51.194 9.134 0
      vertex 49.096 13.57 0
      vertex 49.096 13.57 10
    endloop
  endfacet
  facet normal 0.90399 0.42754 0
    outer loop
      vertex 51.194 9.134 0
      vertex 49.096 13.57 10
      vertex 51.194 9.134 10
    endloop
  endfacet
  facet normal 0.85771 0.51414 0
    outer loop
      vertex 49.096 13.57 0
      vertex 46.573 17.779 0
      vertex 46.573 17.779 10
    endloop
  endfacet
  facet normal 0.85771 0.51414 0
    outer loop
      vertex 49.096 13.57 0
      vertex 46.573 17.779 10
      vertex 49.096 13.57 10
    endloop
  endfacet
  facet normal -0.59559 -0.80329 0
    outer loop
      vertex -22.779 -51.573 0
      vertex -22.779 -51.573 10
      vertex -26.72 -48.651 10
    endloop
  endfacet
  facet normal -0.59559 -0.80329 0
    outer loop
      vertex -22.779 -51.573 0
      vertex -26.72 -48.651 10
      vertex -26.72 -48.651 0
    endloop
  endfacet
  facet normal 0 0 -1
    outer loop
      vertex -44.039 -19.755 0
      vertex 0.099 39.759 0
      vertex -42.847 -24.514 0
    endloop
  endfacet
  facet normal 0 0 -1
    outer loop
      vertex -44.759 -14.901 0
      vertex 0.099 39.759 0
      vertex -44.039 -19.755 0
    endloop
  endfacet
  facet normal 0 0 -1
    outer loop
      vertex -41.194 -29.134 0
      vertex -42.847 -24.514 0
      vertex 0.099 39.759 0
    endloop
  endfacet
  facet normal 0 0 -1
    outer loop
      vertex -45 -10 0
      vertex 0.099 39.759 0
      vertex -44.759 -14.901 0
    endloop
  endfacet
  facet normal 0 0 -1
    outer loop
      vertex -44.759 -5.099 0
      vertex 0.099 39.759 0
      vertex -45 -10 0
    endloop
  endfacet
  facet normal 0 0 -1
    outer loop
      vertex -44.039 -0.245 0
      vertex 0.099 39.759 0
      vertex -44.759 -5.099 0
    endloop
  endfacet
  facet normal 0 0 -1
    outer loop
      vertex -42.847 4.514 0
      vertex 0.099 39.759 0
      vertex -44.039 -0.245 0
    endloop
  endfacet
  facet normal 0 0 -1
    outer loop
      vertex 0.099 39.759 0
      vertex 5 40 0
      vertex -41.194 -29.134 0
    endloop
  endfacet
  facet normal 0 0 -1
    outer loop
      vertex -39.096 -33.57 0
      vertex -41.194 -29.134 0
      vertex 54.759 -14.901 0
    endloop
  endfacet
  facet normal 0.80329 0.59559 0
    outer loop
      vertex 46.573 17.779 0
      vertex 43.651 21.72 0
      vertex 43.651 21.72 10
    endloop
  endfacet
  facet normal 0.80329 0.59559 0
    outer loop
      vertex 46.573 17.779 0
      vertex 43.651 21.72 10
      vertex 46.573 17.779 10
    endloop
  endfacet
  facet normal -0.51414 -0.85771 0
    outer loop
      vertex -18.57 -54.096 0
      vertex -18.57 -54.096 10
      vertex -22.779 -51.573 10
    endloop
  endfacet
  facet normal -0.51414 -0.85771 0
    outer loop
      vertex -18.57 -54.096 0
      vertex -22.779 -51.573 10
      vertex -22.779 -51.573 0
    endloop
  endfacet
  facet normal -0.42754 -0.90399 0
    outer loop
      vertex -14.134 -56.194 0
      vertex -14.134 -56.194 10
      vertex -18.57 -54.096 10
    endloop
  endfacet
  facet normal -0.42754 -0.90399 0
    outer loop
      vertex -14.134 -56.194 0
      vertex -18.57 -54.096 10
      vertex -18.57 -54.096 0
    endloop
  endfacet
  facet normal 0.74081 0.67172 0
    outer loop
      vertex 43.651 21.72 0
      vertex 40.355 25.355 0
      vertex 40.355 25.355 10
    endloop
  endfacet
  facet normal 0.74081 0.67172 0
    outer loop
      vertex 43.651 21.72 0
      vertex 40.355 25.355 10
      vertex 43.651 21.72 10
    endloop
  endfacet
  facet normal -0.33688 -0.94155 0
    outer loop
      vertex -9.514 -57.847 0
      vertex -9.514 -57.847 10
      vertex -14.134 -56.194 10
    endloop
  endfacet
  facet normal -0.33688 -0.94155 0
    outer loop
      vertex -9.514 -57.847 0
      vertex -14.134 -56.194 10
      vertex -14.134 -56.194 0
    endloop
  endfacet
  facet normal 0.67172 0.74081 0
    outer loop
      vertex 40.355 25.355 0
      vertex 36.72 28.651 0
      vertex 36.72 28.651 10
    endloop
  endfacet
  facet normal 0.67172 0.74081 0
    outer loop
      vertex 40.355 25.355 0
      vertex 36.72 28.651 10
      vertex 40.355 25.355 10
    endloop
  endfacet
  facet normal -0.24297 -0.97003 0
    outer loop
      vertex -4.755 -59.039 0
      vertex -4.755 -59.039 10
      vertex -9.514 -57.847 10
    endloop
  endfacet
  facet normal -0.24297 -0.97003 0
    outer loop
      vertex -4.755 -59.039 0
      vertex -9.514 -57.847 10
      vertex -9.514 -57.847 0
    endloop
  endfacet
  facet normal 0 0 -1
    outer loop
      vertex -14.134 -56.194 0
      vertex 46.573 -37.779 0
      vertex -9.514 -57.847 0
    endloop
  endfacet
  facet normal 0 0 -1
    outer loop
      vertex -18.57 -54.096 0
      vertex 46.573 -37.779 0
      vertex -14.134 -56.194 0
    endloop
  endfacet
  facet normal 0 0 -1
    outer loop
      vertex -22.779 -51.573 0
      vertex 46.573 -37.779 0
      vertex -18.57 -54.096 0
    endloop
  endfacet
  facet normal 0 0 -1
    outer loop
      vertex -26.72 -48.651 0
      vertex 46.573 -37.779 0
      vertex -22.779 -51.573 0
    endloop
  endfacet
  facet normal 0 0 -1
    outer loop
      vertex -30.355 -45.355 0
      vertex 46.573 -37.779 0
      vertex -26.72 -48.651 0
    endloop
  endfacet
  facet normal 0 0 -1
    outer loop
      vertex -33.651 -41.72 0
      vertex 49.096 -33.57 0
      vertex -30.355 -45.355 0
    endloop
  endfacet
  facet normal 0 0 -1
    outer loop
      vertex -36.573 -37.779 0
      vertex 49.096 -33.57 0
      vertex -33.651 -41.72 0
    endloop
  endfacet
  facet normal 0 0 -1
    outer loop
      vertex -39.096 -33.57 0
      vertex 54.759 -14.901 0
      vertex -36.573 -37.779 0
    endloop
  endfacet
  facet normal 0 0 -1
    outer loop
      vertex 49.096 -33.57 0
      vertex 46.573 -37.779 0
      vertex -30.355 -45.355 0
    endloop
  endfacet
  facet normal 0.59559 0.80329 0
    outer loop
      vertex 36.72 28.651 0
      vertex 32.779 31.573 0
      vertex 32.779 31.573 10
    endloop
  endfacet
  facet normal 0.59559 0.80329 0
    outer loop
      vertex 36.72 28.651 0
      vertex 32.779 31.573 10
      vertex 36.72 28.651 10
    endloop
  endfacet
  facet normal 0.51414 0.85771 0
    outer loop
      vertex 32.779 31.573 0
      vertex 28.57 34.096 0
      vertex 28.57 34.096 10
    endloop
  endfacet
  facet normal 0.51414 0.85771 0
    outer loop
      vertex 32.779 31.573 0
      vertex 28.57 34.096 10
      vertex 32.779 31.573 10
    endloop
  endfacet
  facet normal 0.51414 -0.85771 0
    outer loop
      vertex 28.57 -54.096 0
      vertex 32.779 -51.573 0
      vertex 32.779 -51.573 10
    endloop
  endfacet
  facet normal 0.51414 -0.85771 0
    outer loop
      vertex 28.57 -54.096 0
      vertex 32.779 -51.573 10
      vertex 28.57 -54.096 10
    endloop
  endfacet
  facet normal -0.74081 0.67172 0
    outer loop
      vertex -30.355 25.355 0
      vertex -33.651 21.72 0
      vertex -33.651 21.72 10
    endloop
  endfacet
  facet normal -0.74081 0.67172 0
    outer loop
      vertex -30.355 25.355 0
      vertex -33.651 21.72 10
      vertex -30.355 25.355 10
    endloop
  endfacet
  facet normal 0.59559 -0.80329 0
    outer loop
      vertex 32.779 -51.573 0
      vertex 36.72 -48.651 0
      vertex 36.72 -48.651 10
    endloop
  endfacet
  facet normal 0.59559 -0.80329 0
    outer loop
      vertex 32.779 -51.573 0
      vertex 36.72 -48.651 10
      vertex 32.779 -51.573 10
    endloop
  endfacet
  facet normal -0.80329 0.59559 0
    outer loop
      vertex -33.651 21.72 0
      vertex -36.573 17.779 0
      vertex -36.573 17.779 10
    endloop
  endfacet
  facet normal -0.80329 0.59559 0
    outer loop
      vertex -33.651 21.72 0
      vertex -36.573 17.779 10
      vertex -33.651 21.72 10
    endloop
  endfacet
  facet normal 0.67172 -0.74081 0
    outer loop
      vertex 40.355 -45.355 0
      vertex 40.355 -45.355 10
      vertex 36.72 -48.651 10
    endloop
  endfacet
  facet normal 0.67172 -0.74081 0
    outer loop
      vertex 40.355 -45.355 0
      vertex 36.72 -48.651 10
      vertex 36.72 -48.651 0
    endloop
  endfacet
  facet normal -0.85771 0.51414 0
    outer loop
      vertex -36.573 17.779 0
      vertex -39.096 13.57 0
      vertex -39.096 13.57 10
    endloop
  endfacet
  facet normal -0.85771 0.51414 0
    outer loop
      vertex -36.573 17.779 0
      vertex -39.096 13.57 10
      vertex -36.573 17.779 10
    endloop
  endfacet
  facet normal 0 0 1
    outer loop
      vertex -4.755 39.039 10
      vertex -44.759 -14.901 10
      vertex 0.099 39.759 10
    endloop
  endfacet
  facet normal 0 0 1
    outer loop
      vertex 5 40 10
      vertex 0.099 39.759 10
      vertex -41.194 -29.134 10
    endloop
  endfacet
  facet normal 0 0 1
    outer loop
      vertex 54.039 -0.245 10
      vertex 52.847 4.514 10
      vertex -41.194 -29.134 10
    endloop
  endfacet
  facet normal 0 0 1
    outer loop
      vertex 52.847 4.514 10
      vertex 51.194 9.134 10
      vertex -41.194 -29.134 10
    endloop
  endfacet
  facet normal 0 0 1
    outer loop
      vertex 51.194 9.134 10
      vertex 49.096 13.57 10
      vertex -41.194 -29.134 10
    endloop
  endfacet
  facet normal 0 0 1
    outer loop
      vertex 49.096 13.57 10
      vertex 46.573 17.779 10
      vertex -41.194 -29.134 10
    endloop
  endfacet
  facet normal 0 0 1
    outer loop
      vertex 46.573 17.779 10
      vertex 43.651 21.72 10
      vertex -41.194 -29.134 10
    endloop
  endfacet
  facet normal 0 0 1
    outer loop
      vertex 43.651 21.72 10
      vertex 40.355 25.355 10
      vertex -41.194 -29.134 10
    endloop
  endfacet
  facet normal 0 0 1
    outer loop
      vertex 40.355 25.355 10
      vertex 36.72 28.651 10
      vertex -41.194 -29.134 10
    endloop
  endfacet
  facet normal 0 0 1
    outer loop
      vertex 36.72 28.651 10
      vertex 32.779 31.573 10
      vertex -41.194 -29.134 10
    endloop
  endfacet
  facet normal 0 0 1
    outer loop
      vertex 32.779 31.573 10
      vertex 28.57 34.096 10
      vertex -41.194 -29.134 10
    endloop
  endfacet
  facet normal 0 0 1
    outer loop
      vertex 28.57 34.096 10
      vertex 24.134 36.194 10
      vertex -41.194 -29.134 10
    endloop
  endfacet
  facet normal 0 0 1
    outer loop
      vertex 24.134 36.194 10
      vertex 19.514 37.847 10
      vertex -41.194 -29.134 10
    endloop
  endfacet
  facet normal 0 0 1
    outer loop
      vertex 14.755 39.039 10
      vertex -41.194 -29.134 10
      vertex 19.514 37.847 10
    endloop
  endfacet
  facet normal 0 0 1
    outer loop
      vertex 9.901 39.759 10
      vertex -41.194 -29.134 10
      vertex 14.755 39.039 10
    endloop
  endfacet
  facet normal 0 0 1
    outer loop
      vertex 5 40 10
      vertex -41.194 -29.134 10
      vertex 9.901 39.759 10
    endloop
  endfacet
  facet normal 0.74081 -0.67172 0
    outer loop
      vertex 43.651 -41.72 0
      vertex 43.651 -41.72 10
      vertex 40.355 -45.355 10
    endloop
  endfacet
  facet normal 0.74081 -0.67172 0
    outer loop
      vertex 43.651 -41.72 0
      vertex 40.355 -45.355 10
      vertex 40.355 -45.355 0
    endloop
  endfacet
  facet normal -0.90399 0.42754 0
    outer loop
      vertex -39.096 13.57 0
      vertex -41.194 9.134 0
      vertex -41.194 9.134 10
    endloop
  endfacet
  facet normal -0.90399 0.42754 0
    outer loop
      vertex -39.096 13.57 0
      vertex -41.194 9.134 10
      vertex -39.096 13.57 10
    endloop
  endfacet
  facet normal 0.80329 -0.59559 0
    outer loop
      vertex 46.573 -37.779 0
      vertex 46.573 -37.779 10
      vertex 43.651 -41.72 10
    endloop
  endfacet
  facet normal 0.80329 -0.59559 0
    outer loop
      vertex 46.573 -37.779 0
      vertex 43.651 -41.72 10
      vertex 43.651 -41.72 0
    endloop
  endfacet
  facet normal -0.94155 0.33688 0
    outer loop
      vertex -41.194 9.134 0
      vertex -42.847 4.514 0
      vertex -42.847 4.514 10
    endloop
  endfacet
  facet normal -0.94155 0.33688 0
    outer loop
      vertex -41.194 9.134 0
      vertex -42.847 4.514 10
      vertex -41.194 9.134 10
    endloop
  endfacet
  facet normal 0.85771 -0.51414 0
    outer loop
      vertex 49.096 -33.57 0
      vertex 49.096 -33.57 10
      vertex 46.573 -37.779 10
    endloop
  endfacet
  facet normal 0.85771 -0.51414 0
    outer loop
      vertex 49.096 -33.57 0
      vertex 46.573 -37.779 10
      vertex 46.573 -37.779 0
    endloop
  endfacet
  facet normal -0.97003 0.24297 0
    outer loop
      vertex -44.039 -0.245 10
      vertex -42.847 4.514 10
      vertex -42.847 4.514 0
    endloop
  endfacet
  facet normal 0.90399 -0.42754 0
    outer loop
      vertex 51.194 -29.134 10
      vertex 49.096 -33.57 10
      vertex 51.194 -29.134 0
    endloop
  endfacet
  facet normal 0.90399 -0.42754 0
    outer loop
      vertex 49.096 -33.57 0
      vertex 51.194 -29.134 0
      vertex 49.096 -33.57 10
    endloop
  endfacet
  facet normal 0 0 1
    outer loop
      vertex -9.514 37.847 10
      vertex -14.134 36.194 10
      vertex -4.755 39.039 10
    endloop
  endfacet
  facet normal 0 0 1
    outer loop
      vertex -4.755 39.039 10
      vertex -14.134 36.194 10
      vertex -18.57 34.096 10
    endloop
  endfacet
  facet normal 0 0 1
    outer loop
      vertex -4.755 39.039 10
      vertex -18.57 34.096 10
      vertex -22.779 31.573 10
    endloop
  endfacet
  facet normal 0 0 1
    outer loop
      vertex -4.755 39.039 10
      vertex -22.779 31.573 10
      vertex -26.72 28.651 10
    endloop
  endfacet
  facet normal 0 0 1
    outer loop
      vertex -4.755 39.039 10
      vertex -26.72 28.651 10
      vertex -30.355 25.355 10
    endloop
  endfacet
  facet normal 0 0 1
    outer loop
      vertex -4.755 39.039 10
      vertex -30.355 25.355 10
      vertex -33.651 21.72 10
    endloop
  endfacet
  facet normal 0 0 1
    outer loop
      vertex -4.755 39.039 10
      vertex -33.651 21.72 10
      vertex -36.573 17.779 10
    endloop
  endfacet
  facet normal 0 0 1
    outer loop
      vertex -4.755 39.039 10
      vertex -36.573 17.779 10
      vertex -39.096 13.57 10
    endloop
  endfacet
  facet normal 0 0 1
    outer loop
      vertex -4.755 39.039 10
      vertex -39.096 13.57 10
      vertex -41.194 9.134 10
    endloop
  endfacet
  facet normal 0 0 1
    outer loop
      vertex -42.847 4.514 10
      vertex -44.039 -0.245 10
      vertex -4.755 39.039 10
    endloop
  endfacet
  facet normal 0 0 1
    outer loop
      vertex -44.039 -0.245 10
      vertex -44.759 -5.099 10
      vertex -4.755 39.039 10
    endloop
  endfacet
  facet normal 0 0 1
    outer loop
      vertex -41.194 9.134 10
      vertex -42.847 4.514 10
      vertex -4.755 39.039 10
    endloop
  endfacet
  facet normal 0.94155 -0.33688 0
    outer loop
      vertex 51.194 -29.134 0
      vertex 52.847 -24.514 0
      vertex 52.847 -24.514 10
    endloop
  endfacet
  facet normal 0.94155 -0.33688 0
    outer loop
      vertex 51.194 -29.134 0
      vertex 52.847 -24.514 10
      vertex 51.194 -29.134 10
    endloop
  endfacet
  facet normal -0.14673 -0.98918 0
    outer loop
      vertex 0.099 -59.759 0
      vertex 0.099 -59.759 10
      vertex -4.755 -59.039 10
    endloop
  endfacet
  facet normal -0.14673 -0.98918 0
    outer loop
      vertex 0.099 -59.759 0
      vertex -4.755 -59.039 10
      vertex -4.755 -59.039 0
    endloop
  endfacet
  facet normal -0.04911 -0.99879 0
    outer loop
      vertex 5 -60 0
      vertex 5 -60 10
      vertex 0.099 -59.759 10
    endloop
  endfacet
  facet normal -0.04911 -0.99879 0
    outer loop
      vertex 5 -60 0
      vertex 0.099 -59.759 10
      vertex 0.099 -59.759 0
    endloop
  endfacet
  facet normal 0.42754 0.90399 0
    outer loop
      vertex 28.57 34.096 0
      vertex 24.134 36.194 0
      vertex 24.134 36.194 10
    endloop
  endfacet
  facet normal 0.42754 0.90399 0
    outer loop
      vertex 28.57 34.096 0
      vertex 24.134 36.194 10
      vertex 28.57 34.096 10
    endloop
  endfacet
  facet normal 0 0 1
    outer loop
      vertex 54.039 -0.245 10
      vertex -41.194 -29.134 10
      vertex 54.759 -5.099 10
    endloop
  endfacet
  facet normal 0 0 1
    outer loop
      vertex 55 -10 10
      vertex 54.759 -5.099 10
      vertex -41.194 -29.134 10
    endloop
  endfacet
  facet normal 0 0 1
    outer loop
      vertex 49.096 -33.57 10
      vertex 51.194 -29.134 10
      vertex -41.194 -29.134 10
    endloop
  endfacet
  facet normal 0 0 1
    outer loop
      vertex 51.194 -29.134 10
      vertex 52.847 -24.514 10
      vertex -41.194 -29.134 10
    endloop
  endfacet
  facet normal 0 0 1
    outer loop
      vertex 54.039 -19.755 10
      vertex -41.194 -29.134 10
      vertex 52.847 -24.514 10
    endloop
  endfacet
  facet normal 0 0 1
    outer loop
      vertex 54.759 -14.901 10
      vertex -41.194 -29.134 10
      vertex 54.039 -19.755 10
    endloop
  endfacet
  facet normal 0 0 1
    outer loop
      vertex 55 -10 10
      vertex -41.194 -29.134 10
      vertex 54.759 -14.901 10
    endloop
  endfacet
  facet normal -0.97003 0.24297 0
    outer loop
      vertex -42.847 4.514 0
      vertex -44.039 -0.245 0
      vertex -44.039 -0.245 10
    endloop
  endfacet
  facet normal 0.33688 0.94155 0
    outer loop
      vertex 24.134 36.194 0
      vertex 19.514 37.847 0
      vertex 19.514 37.847 10
    endloop
  endfacet
  facet normal 0.33688 0.94155 0
    outer loop
      vertex 24.134 36.194 0
      vertex 19.514 37.847 10
      vertex 24.134 36.194 10
    endloop
  endfacet
  facet normal -0.98918 0.14673 0
    outer loop
      vertex -44.039 -0.245 0
      vertex -44.759 -5.099 0
      vertex -44.759 -5.099 10
    endloop
  endfacet
  facet normal -0.98918 0.14673 0
    outer loop
      vertex -44.039 -0.245 0
      vertex -44.759 -5.099 10
      vertex -44.039 -0.245 10
    endloop
  endfacet
  facet normal 0.24297 0.97003 0
    outer loop
      vertex 19.514 37.847 0
      vertex 14.755 39.039 0
      vertex 14.755 39.039 10
    endloop
  endfacet
  facet normal 0.24297 0.97003 0
    outer loop
      vertex 19.514 37.847 0
      vertex 14.755 39.039 10
      vertex 19.514 37.847 10
    endloop
  endfacet
  facet normal 0.14673 0.98918 0
    outer loop
      vertex 14.755 39.039 0
      vertex 9.901 39.759 0
      vertex 9.901 39.759 10
    endloop
  endfacet
  facet normal 0.14673 0.98918 0
    outer loop
      vertex 14.755 39.039 0
      vertex 9.901 39.759 10
      vertex 14.755 39.039 10
    endloop
  endfacet
  facet normal 0.04911 0.99879 0
    outer loop
      vertex 9.901 39.759 0
      vertex 5 40 0
      vertex 5 40 10
    endloop
  endfacet
  facet normal 0.04911 0.99879 0
    outer loop
      vertex 9.901 39.759 0
      vertex 5 40 10
      vertex 9.901 39.759 10
    endloop
  endfacet
  facet normal 0 0 1
    outer loop
      vertex 46.573 -37.779 10
      vertex -41.194 -29.134 10
      vertex 43.651 -41.72 10
    endloop
  endfacet
  facet normal 0 0 1
    outer loop
      vertex 49.096 -33.57 10
      vertex -41.194 -29.134 10
      vertex 46.573 -37.779 10
    endloop
  endfacet
  facet normal 0 0 1
    outer loop
      vertex 40.355 -45.355 10
      vertex 43.651 -41.72 10
      vertex -41.194 -29.134 10
    endloop
  endfacet
  facet normal 0 0 1
    outer loop
      vertex 36.72 -48.651 10
      vertex 40.355 -45.355 10
      vertex -41.194 -29.134 10
    endloop
  endfacet
  facet normal 0 0 1
    outer loop
      vertex -4.755 -59.039 10
      vertex 0.099 -59.759 10
      vertex -41.194 -29.134 10
    endloop
  endfacet
  facet normal 0 0 1
    outer loop
      vertex 0.099 -59.759 10
      vertex 5 -60 10
      vertex -41.194 -29.134 10
    endloop
  endfacet
  facet normal 0 0 1
    outer loop
      vertex 5 -60 10
      vertex 9.901 -59.759 10
      vertex -41.194 -29.134 10
    endloop
  endfacet
  facet normal 0 0 1
    outer loop
      vertex 9.901 -59.759 10
      vertex 14.755 -59.039 10
      vertex -41.194 -29.134 10
    endloop
  endfacet
  facet normal 0 0 1
    outer loop
      vertex 14.755 -59.039 10
      vertex 19.514 -57.847 10
      vertex -41.194 -29.134 10
    endloop
  endfacet
  facet normal 0 0 1
    outer loop
      vertex 19.514 -57.847 10
      vertex 24.134 -56.194 10
      vertex -41.194 -29.134 10
    endloop
  endfacet
  facet normal 0 0 1
    outer loop
      vertex 24.134 -56.194 10
      vertex 28.57 -54.096 10
      vertex -41.194 -29.134 10
    endloop
  endfacet
  facet normal 0 0 1
    outer loop
      vertex 32.779 -51.573 10
      vertex -41.194 -29.134 10
      vertex 28.57 -54.096 10
    endloop
  endfacet
  facet normal 0 0 1
    outer loop
      vertex 36.72 -48.651 10
      vertex -41.194 -29.134 10
      vertex 32.779 -51.573 10
    endloop
  endfacet
  facet normal -0.04911 0.99879 0
    outer loop
      vertex 5 40 0
      vertex 0.099 39.759 0
      vertex 0.099 39.759 10
    endloop
  endfacet
  facet normal -0.04911 0.99879 0
    outer loop
      vertex 5 40 0
      vertex 0.099 39.759 10
      vertex 5 40 10
    endloop
  endfacet
  facet normal 0.97003 -0.24297 0
    outer loop
      vertex 52.847 -24.514 0
      vertex 54.039 -19.755 0
      vertex 54.039 -19.755 10
    endloop
  endfacet
  facet normal 0.97003 -0.24297 0
    outer loop
      vertex 52.847 -24.514 0
      vertex 54.039 -19.755 10
      vertex 52.847 -24.514 10
    endloop
  endfacet
  facet normal 0.98918 -0.14673 0
    outer loop
      vertex 54.039 -19.755 0
      vertex 54.759 -14.901 0
      vertex 54.759 -14.901 10
    endloop
  endfacet
  facet normal 0.98918 -0.14673 0
    outer loop
      vertex 54.039 -19.755 0
      vertex 54.759 -14.901 10
      vertex 54.039 -19.755 10
    endloop
  endfacet
  facet normal -0.14673 0.98918 0
    outer loop
      vertex 0.099 39.759 0
      vertex -4.755 39.039 10
      vertex 0.099 39.759 10
    endloop
  endfacet
  facet normal 0.99879 -0.04911 0
    outer loop
      vertex 54.759 -14.901 0
      vertex 55 -10 0
      vertex 55 -10 10
    endloop
  endfacet
  facet normal 0.99879 -0.04911 0
    outer loop
      vertex 54.759 -14.901 0
      vertex 55 -10 10
      vertex 54.759 -14.901 10
    endloop
  endfacet
  facet normal -0.14673 0.98918 0
    outer loop
      vertex 0.099 39.759 0
      vertex -4.755 39.039 0
      vertex -4.755 39.039 10
    endloop
  endfacet
  facet normal 0.99879 0.04911 0
    outer loop
      vertex 54.759 -5.099 0
      vertex 54.759 -5.099 10
      vertex 55 -10 10
    endloop
  endfacet
  facet normal 0.99879 0.04911 0
    outer loop
      vertex 54.759 -5.099 0
      vertex 55 -10 10
      vertex 55 -10 0
    endloop
  endfacet
  facet normal -0.24297 0.97003 0
    outer loop
      vertex -4.755 39.039 0
      vertex -9.514 37.847 0
      vertex -9.514 37.847 10
    endloop
  endfacet
  facet normal -0.24297 0.97003 0
    outer loop
      vertex -4.755 39.039 0
      vertex -9.514 37.847 10
      vertex -4.755 39.039 10
    endloop
  endfacet
  facet normal 0.98918 0.14673 0
    outer loop
      vertex 54.039 -0.245 0
      vertex 54.039 -0.245 10
      vertex 54.759 -5.099 10
    endloop
  endfacet
  facet normal 0.98918 0.14673 0
    outer loop
      vertex 54.039 -0.245 0
      vertex 54.759 -5.099 10
      vertex 54.759 -5.099 0
    endloop
  endfacet
  facet normal -0.33688 0.94155 0
    outer loop
      vertex -9.514 37.847 0
      vertex -14.134 36.194 0
      vertex -14.134 36.194 10
    endloop
  endfacet
  facet normal -0.33688 0.94155 0
    outer loop
      vertex -9.514 37.847 0
      vertex -14.134 36.194 10
      vertex -9.514 37.847 10
    endloop
  endfacet
  facet normal -0.42754 0.90399 0
    outer loop
      vertex -14.134 36.194 0
      vertex -18.57 34.096 0
      vertex -18.57 34.096 10
    endloop
  endfacet
  facet normal -0.42754 0.90399 0
    outer loop
      vertex -14.134 36.194 0
      vertex -18.57 34.096 10
      vertex -14.134 36.194 10
    endloop
  endfacet
  facet normal -0.99879 0.04911 0
    outer loop
      vertex -44.759 -5.099 0
      vertex -45 -10 0
      vertex -45 -10 10
    endloop
  endfacet
  facet normal -0.99879 0.04911 0
    outer loop
      vertex -44.759 -5.099 0
      vertex -45 -10 10
      vertex -44.759 -5.099 10
    endloop
  endfacet
  facet normal 0.04911 -0.99879 0
    outer loop
      vertex 5 -60 10
      vertex 5 -60 0
      vertex 9.901 -59.759 0
    endloop
  endfacet
  facet normal 0.04911 -0.99879 0
    outer loop
      vertex 5 -60 10
      vertex 9.901 -59.759 0
      vertex 9.901 -59.759 10
    endloop
  endfacet
  facet normal -0.99879 -0.04911 0
    outer loop
      vertex -45 -10 10
      vertex -45 -10 0
      vertex -44.759 -14.901 0
    endloop
  endfacet
  facet normal -0.99879 -0.04911 0
    outer loop
      vertex -45 -10 10
      vertex -44.759 -14.901 0
      vertex -44.759 -14.901 10
    endloop
  endfacet
  facet normal 0.14673 -0.98918 0
    outer loop
      vertex 9.901 -59.759 0
      vertex 14.755 -59.039 0
      vertex 14.755 -59.039 10
    endloop
  endfacet
  facet normal 0.14673 -0.98918 0
    outer loop
      vertex 9.901 -59.759 0
      vertex 14.755 -59.039 10
      vertex 9.901 -59.759 10
    endloop
  endfacet
  facet normal -0.98918 -0.14673 0
    outer loop
      vertex -44.759 -14.901 0
      vertex -44.039 -19.755 0
      vertex -44.039 -19.755 10
    endloop
  endfacet
  facet normal -0.98918 -0.14673 0
    outer loop
      vertex -44.759 -14.901 0
      vertex -44.039 -19.755 10
      vertex -44.759 -14.901 10
    endloop
  endfacet
  facet normal -0.97003 -0.24297 0
    outer loop
      vertex -44.039 -19.755 0
      vertex -42.847 -24.514 0
      vertex -42.847 -24.514 10
    endloop
  endfacet
  facet normal -0.97003 -0.24297 0
    outer loop
      vertex -44.039 -19.755 0
      vertex -42.847 -24.514 10
      vertex -44.039 -19.755 10
    endloop
  endfacet
  facet normal 0.24297 -0.97003 0
    outer loop
      vertex 14.755 -59.039 0
      vertex 19.514 -57.847 0
      vertex 19.514 -57.847 10
    endloop
  endfacet
  facet normal 0.24297 -0.97003 0
    outer loop
      vertex 14.755 -59.039 0
      vertex 19.514 -57.847 10
      vertex 14.755 -59.039 10
    endloop
  endfacet
  facet normal -0.94155 -0.33688 0
    outer loop
      vertex -42.847 -24.514 0
      vertex -41.194 -29.134 0
      vertex -41.194 -29.134 10
    endloop
  endfacet
  facet normal -0.94155 -0.33688 0
    outer loop
      vertex -42.847 -24.514 0
      vertex -41.194 -29.134 10
      vertex -42.847 -24.514 10
    endloop
  endfacet
  facet normal 0.33688 -0.94155 0
    outer loop
      vertex 19.514 -57.847 0
      vertex 24.134 -56.194 0
      vertex 24.134 -56.194 10
    endloop
  endfacet
  facet normal 0.33688 -0.94155 0
    outer loop
      vertex 19.514 -57.847 0
      vertex 24.134 -56.194 10
      vertex 19.514 -57.847 10
    endloop
  endfacet
  facet normal -0.90399 -0.42754 0
    outer loop
      vertex -41.194 -29.134 0
      vertex -39.096 -33.57 0
      vertex -41.194 -29.134 10
    endloop
  endfacet
  facet normal 0.42754 -0.90399 0
    outer loop
      vertex 24.134 -56.194 0
      vertex 28.57 -54.096 0
      vertex 28.57 -54.096 10
    endloop
  endfacet
  facet normal 0.42754 -0.90399 0
    outer loop
      vertex 24.134 -56.194 0
      vertex 28.57 -54.096 10
      vertex 24.134 -56.194 10
    endloop
  endfacet
  facet normal -0.90399 -0.42754 0
    outer loop
      vertex -39.096 -33.57 0
      vertex -39.096 -33.57 10
      vertex -41.194 -29.134 10
    endloop
  endfacet
  facet normal -0.85771 -0.51414 0
    outer loop
      vertex -39.096 -33.57 0
      vertex -36.573 -37.779 0
      vertex -36.573 -37.779 10
    endloop
  endfacet
  facet normal -0.85771 -0.51414 0
    outer loop
      vertex -39.096 -33.57 0
      vertex -36.573 -37.779 10
      vertex -39.096 -33.57 10
    endloop
  endfacet
  facet normal -0.80329 -0.59559 0
    outer loop
      vertex -36.573 -37.779 0
      vertex -33.651 -41.72 0
      vertex -33.651 -41.72 10
    endloop
  endfacet
  facet normal -0.80329 -0.59559 0
    outer loop
      vertex -36.573 -37.779 0
      vertex -33.651 -41.72 10
      vertex -36.573 -37.779 10
    endloop
  endfacet
  facet normal -0.74081 -0.67172 0
    outer loop
      vertex -33.651 -41.72 0
      vertex -30.355 -45.355 0
      vertex -30.355 -45.355 10
    endloop
  endfacet
  facet normal -0.74081 -0.67172 0
    outer loop
      vertex -33.651 -41.72 0
      vertex -30.355 -45.355 10
      vertex -33.651 -41.72 10
    endloop
  endfacet
  facet normal -0.67172 -0.74081 0
    outer loop
      vertex -26.72 -48.651 0
      vertex -26.72 -48.651 10
      vertex -30.355 -45.355 10
    endloop
  endfacet
  facet normal -0.67172 -0.74081 0
    outer loop
      vertex -26.72 -48.651 0
      vertex -30.355 -45.355 10
      vertex -30.355 -45.355 0
    endloop
  endfacet
endsolid stl_item0
